<?xml version="1.0" encoding="UTF-8" standalone="no"?>
<!DOCTYPE svg PUBLIC "-//W3C//DTD SVG 1.1//EN" "http://www.w3.org/Graphics/SVG/1.1/DTD/svg11.dtd">
<svg version="1.1" xmlns="http://www.w3.org/2000/svg" xmlns:xlink="http://www.w3.org/1999/xlink" preserveAspectRatio="xMidYMid meet" viewBox="440.9153435200092 238.85929610553137 88.8423408424369 181.45833956370768" width="83.34" height="175.96"><defs><path d="M490.68 241.36C510.6 241.36 526.76 257.51 526.76 277.44C526.76 305.42 526.76 353.26 526.76 381.24C526.76 401.16 510.6 417.32 490.68 417.32C481.22 417.32 488.95 417.32 479.5 417.32C459.57 417.32 443.42 401.16 443.42 381.24C443.42 353.26 443.42 305.42 443.42 277.44C443.42 257.51 459.57 241.36 479.5 241.36C488.95 241.36 481.22 241.36 490.68 241.36Z" id="aq8B7v10V"></path><path d="" id="a2h6vqFo9D"></path><path d="M519.75 400.62L449.64 400.62" id="b2eTZzzY2"></path><path d="M526.76 329.34L443.42 329.12" id="cZvupyg94"></path><path d="M526.76 313.62L444.57 313.62" id="b7gZIlya2M"></path><path d="M525.07 296.12L443.42 296.12" id="a4T5hCeUOl"></path><path d="M526.76 278.62L443.42 278.62" id="bP6A7QlnL"></path><path d="M522.74 260.62L447.91 260.62" id="b3y2fsDag"></path><path d="M525.07 347.62L444.57 347.62" id="g2gnc1g0yK"></path><path d="M525.07 365.12L444.57 365.12" id="b1KEnoVbJS"></path><path d="M526.76 382.62L443.42 382.62" id="c49dlDzXTR"></path></defs><g><g><g><use xlink:href="#aq8B7v10V" opacity="1" fill-opacity="0" stroke="#000000" stroke-width="5" stroke-opacity="1"></use></g></g><g><g><use xlink:href="#a2h6vqFo9D" opacity="1" fill-opacity="0" stroke="#4b9eea" stroke-width="3" stroke-opacity="1"></use></g></g><g><g><use xlink:href="#b2eTZzzY2" opacity="1" fill-opacity="0" stroke="#02090f" stroke-width="4" stroke-opacity="1"></use></g></g><g><g><use xlink:href="#cZvupyg94" opacity="1" fill-opacity="0" stroke="#02090f" stroke-width="4" stroke-opacity="1"></use></g></g><g><g><use xlink:href="#b7gZIlya2M" opacity="1" fill-opacity="0" stroke="#02090f" stroke-width="4" stroke-opacity="1"></use></g></g><g><g><use xlink:href="#a4T5hCeUOl" opacity="1" fill-opacity="0" stroke="#02090f" stroke-width="4" stroke-opacity="1"></use></g></g><g><g><use xlink:href="#bP6A7QlnL" opacity="1" fill-opacity="0" stroke="#02090f" stroke-width="4" stroke-opacity="1"></use></g></g><g><g><use xlink:href="#b3y2fsDag" opacity="1" fill-opacity="0" stroke="#02090f" stroke-width="4" stroke-opacity="1"></use></g></g><g><g><use xlink:href="#g2gnc1g0yK" opacity="1" fill-opacity="0" stroke="#02090f" stroke-width="4" stroke-opacity="1"></use></g></g><g><g><use xlink:href="#b1KEnoVbJS" opacity="1" fill-opacity="0" stroke="#02090f" stroke-width="4" stroke-opacity="1"></use></g></g><g><g><use xlink:href="#c49dlDzXTR" opacity="1" fill-opacity="0" stroke="#02090f" stroke-width="4" stroke-opacity="1"></use></g></g></g></svg>