<?xml version="1.0" encoding="UTF-8" standalone="no"?>
<!DOCTYPE svg PUBLIC "-//W3C//DTD SVG 1.1//EN" "http://www.w3.org/Graphics/SVG/1.1/DTD/svg11.dtd">
<svg version="1.1" xmlns="http://www.w3.org/2000/svg" xmlns:xlink="http://www.w3.org/1999/xlink" preserveAspectRatio="xMidYMid meet" viewBox="446.2199273871513 453.0276092408826 83.53775697529477 172.16417158103513" width="78.04" height="166.66"><defs><path d="M455.93 597.07C471.8 617.62 488.84 627.74 514.11 619.1C539.37 610.45 520.33 593.79 512.33 571.64C504.33 549.49 532.48 518.31 520.11 490.19C507.73 462.07 485.8 450.31 458.83 457.67C431.87 465.04 467.36 488.17 467.45 509.83C467.53 531.49 440.05 576.53 455.93 597.07Z" id="c30FEL2EGu"></path><path d="" id="b1K2eQaFEv"></path><path d="M524.75 610.62L468.84 610.62" id="bzD2g9d5"></path><path d="M515.42 539.34L459.75 538.86" id="a4op6mEKFd"></path><path d="M520.76 523.62L463.91 523.62" id="a2WK63JFbW"></path><path d="M524.75 506.12L465.08 506.12" id="a31qvfdXOm"></path><path d="M520.76 488.62L458.75 488.62" id="b3gnbFKKn"></path><path d="M508.07 470.62L449.57 470.62" id="ad0mjODwu"></path><path d="M511.47 557.62L454.77 557.62" id="c1xmvxMw1y"></path><path d="M513.87 575.12L449.57 575.12" id="c3JsrAuQCo"></path><path d="M522.76 592.62L453.02 592.62" id="aDCWjBEtX"></path></defs><g><g><g><use xlink:href="#c30FEL2EGu" opacity="1" fill-opacity="0" stroke="#000000" stroke-width="5" stroke-opacity="1"></use></g></g><g><g><use xlink:href="#b1K2eQaFEv" opacity="1" fill-opacity="0" stroke="#4b9eea" stroke-width="3" stroke-opacity="1"></use></g></g><g><g><use xlink:href="#bzD2g9d5" opacity="1" fill-opacity="0" stroke="#02090f" stroke-width="4" stroke-opacity="1"></use></g></g><g><g><use xlink:href="#a4op6mEKFd" opacity="1" fill-opacity="0" stroke="#02090f" stroke-width="4" stroke-opacity="1"></use></g></g><g><g><use xlink:href="#a2WK63JFbW" opacity="1" fill-opacity="0" stroke="#02090f" stroke-width="4" stroke-opacity="1"></use></g></g><g><g><use xlink:href="#a31qvfdXOm" opacity="1" fill-opacity="0" stroke="#02090f" stroke-width="4" stroke-opacity="1"></use></g></g><g><g><use xlink:href="#b3gnbFKKn" opacity="1" fill-opacity="0" stroke="#02090f" stroke-width="4" stroke-opacity="1"></use></g></g><g><g><use xlink:href="#ad0mjODwu" opacity="1" fill-opacity="0" stroke="#02090f" stroke-width="4" stroke-opacity="1"></use></g></g><g><g><use xlink:href="#c1xmvxMw1y" opacity="1" fill-opacity="0" stroke="#02090f" stroke-width="4" stroke-opacity="1"></use></g></g><g><g><use xlink:href="#c3JsrAuQCo" opacity="1" fill-opacity="0" stroke="#02090f" stroke-width="4" stroke-opacity="1"></use></g></g><g><g><use xlink:href="#aDCWjBEtX" opacity="1" fill-opacity="0" stroke="#02090f" stroke-width="4" stroke-opacity="1"></use></g></g></g></svg>